<mxfile host="Electron" modified="2024-03-08T11:59:56.503Z" agent="Mozilla/5.0 (Windows NT 10.0; Win64; x64) AppleWebKit/537.36 (KHTML, like Gecko) draw.io/21.5.1 Chrome/112.0.5615.204 Electron/24.6.0 Safari/537.36" etag="qYklUjJmXnI-eIwJ5fvE" version="21.5.1" type="device">
  <diagram id="C5RBs43oDa-KdzZeNtuy" name="Page-1">
    <mxGraphModel dx="574" dy="389" grid="1" gridSize="10" guides="1" tooltips="1" connect="1" arrows="1" fold="1" page="1" pageScale="1" pageWidth="2339" pageHeight="3300" math="0" shadow="0">
      <root>
        <mxCell id="WIyWlLk6GJQsqaUBKTNV-0" />
        <mxCell id="WIyWlLk6GJQsqaUBKTNV-1" parent="WIyWlLk6GJQsqaUBKTNV-0" />
        <mxCell id="jx5KFHIMVyY-EHVHVlKd-0" value="ASR&lt;br&gt;module" style="rounded=0;whiteSpace=wrap;html=1;" vertex="1" parent="WIyWlLk6GJQsqaUBKTNV-1">
          <mxGeometry x="160" y="360" width="80" height="40" as="geometry" />
        </mxCell>
        <mxCell id="jx5KFHIMVyY-EHVHVlKd-1" value="Server&lt;br&gt;module" style="rounded=0;whiteSpace=wrap;html=1;" vertex="1" parent="WIyWlLk6GJQsqaUBKTNV-1">
          <mxGeometry x="320" y="360" width="80" height="40" as="geometry" />
        </mxCell>
        <mxCell id="jx5KFHIMVyY-EHVHVlKd-8" value="Client&lt;br&gt;module" style="rounded=0;whiteSpace=wrap;html=1;" vertex="1" parent="WIyWlLk6GJQsqaUBKTNV-1">
          <mxGeometry x="480" y="280" width="80" height="40" as="geometry" />
        </mxCell>
        <mxCell id="jx5KFHIMVyY-EHVHVlKd-9" value="Client&lt;br&gt;module" style="rounded=0;whiteSpace=wrap;html=1;" vertex="1" parent="WIyWlLk6GJQsqaUBKTNV-1">
          <mxGeometry x="480" y="360" width="80" height="40" as="geometry" />
        </mxCell>
        <mxCell id="jx5KFHIMVyY-EHVHVlKd-10" value="Client&lt;br&gt;module" style="rounded=0;whiteSpace=wrap;html=1;" vertex="1" parent="WIyWlLk6GJQsqaUBKTNV-1">
          <mxGeometry x="480" y="440" width="80" height="40" as="geometry" />
        </mxCell>
        <mxCell id="jx5KFHIMVyY-EHVHVlKd-16" value="" style="group;rotation=-35;" vertex="1" connectable="0" parent="WIyWlLk6GJQsqaUBKTNV-1">
          <mxGeometry x="400" y="310" width="80" height="40" as="geometry" />
        </mxCell>
        <mxCell id="jx5KFHIMVyY-EHVHVlKd-17" value="Audio" style="text;html=1;strokeColor=none;fillColor=none;align=center;verticalAlign=middle;whiteSpace=wrap;rounded=0;rotation=-35;" vertex="1" parent="jx5KFHIMVyY-EHVHVlKd-16">
          <mxGeometry x="13" y="2" width="40" height="10" as="geometry" />
        </mxCell>
        <mxCell id="jx5KFHIMVyY-EHVHVlKd-18" value="Text" style="text;html=1;strokeColor=none;fillColor=none;align=center;verticalAlign=middle;whiteSpace=wrap;rounded=0;rotation=-35;" vertex="1" parent="jx5KFHIMVyY-EHVHVlKd-16">
          <mxGeometry x="28" y="28" width="40" height="10" as="geometry" />
        </mxCell>
        <mxCell id="jx5KFHIMVyY-EHVHVlKd-19" value="" style="group;rotation=-35;" vertex="1" connectable="0" parent="jx5KFHIMVyY-EHVHVlKd-16">
          <mxGeometry y="15" width="80" height="9" as="geometry" />
        </mxCell>
        <mxCell id="jx5KFHIMVyY-EHVHVlKd-20" value="" style="endArrow=classic;html=1;rounded=0;" edge="1" parent="jx5KFHIMVyY-EHVHVlKd-19">
          <mxGeometry width="50" height="50" relative="1" as="geometry">
            <mxPoint x="70" y="-22" as="sourcePoint" />
            <mxPoint x="5" y="23" as="targetPoint" />
          </mxGeometry>
        </mxCell>
        <mxCell id="jx5KFHIMVyY-EHVHVlKd-21" value="" style="endArrow=classic;html=1;rounded=0;entryX=0;entryY=0.75;entryDx=0;entryDy=0;" edge="1" parent="jx5KFHIMVyY-EHVHVlKd-19">
          <mxGeometry width="50" height="50" relative="1" as="geometry">
            <mxPoint x="10" y="31" as="sourcePoint" />
            <mxPoint x="75" y="-14" as="targetPoint" />
          </mxGeometry>
        </mxCell>
        <mxCell id="jx5KFHIMVyY-EHVHVlKd-6" value="Audio" style="text;html=1;strokeColor=none;fillColor=none;align=center;verticalAlign=middle;whiteSpace=wrap;rounded=0;" vertex="1" parent="WIyWlLk6GJQsqaUBKTNV-1">
          <mxGeometry x="262" y="360" width="40" height="10" as="geometry" />
        </mxCell>
        <mxCell id="jx5KFHIMVyY-EHVHVlKd-7" value="Text" style="text;html=1;strokeColor=none;fillColor=none;align=center;verticalAlign=middle;whiteSpace=wrap;rounded=0;" vertex="1" parent="WIyWlLk6GJQsqaUBKTNV-1">
          <mxGeometry x="260" y="390" width="40" height="10" as="geometry" />
        </mxCell>
        <mxCell id="jx5KFHIMVyY-EHVHVlKd-11" value="" style="group" vertex="1" connectable="0" parent="WIyWlLk6GJQsqaUBKTNV-1">
          <mxGeometry x="240" y="375" width="80" height="9" as="geometry" />
        </mxCell>
        <mxCell id="jx5KFHIMVyY-EHVHVlKd-2" value="" style="endArrow=classic;html=1;rounded=0;" edge="1" parent="jx5KFHIMVyY-EHVHVlKd-11">
          <mxGeometry width="50" height="50" relative="1" as="geometry">
            <mxPoint x="80" as="sourcePoint" />
            <mxPoint as="targetPoint" />
          </mxGeometry>
        </mxCell>
        <mxCell id="jx5KFHIMVyY-EHVHVlKd-3" value="" style="endArrow=classic;html=1;rounded=0;entryX=0;entryY=0.75;entryDx=0;entryDy=0;" edge="1" parent="jx5KFHIMVyY-EHVHVlKd-11">
          <mxGeometry width="50" height="50" relative="1" as="geometry">
            <mxPoint y="9" as="sourcePoint" />
            <mxPoint x="80" y="9" as="targetPoint" />
          </mxGeometry>
        </mxCell>
        <mxCell id="jx5KFHIMVyY-EHVHVlKd-28" value="" style="group" vertex="1" connectable="0" parent="WIyWlLk6GJQsqaUBKTNV-1">
          <mxGeometry x="400" y="380" width="80" height="9" as="geometry" />
        </mxCell>
        <mxCell id="jx5KFHIMVyY-EHVHVlKd-29" value="" style="endArrow=classic;html=1;rounded=0;" edge="1" parent="jx5KFHIMVyY-EHVHVlKd-28">
          <mxGeometry width="50" height="50" relative="1" as="geometry">
            <mxPoint x="80" as="sourcePoint" />
            <mxPoint as="targetPoint" />
          </mxGeometry>
        </mxCell>
        <mxCell id="jx5KFHIMVyY-EHVHVlKd-30" value="" style="endArrow=classic;html=1;rounded=0;entryX=0;entryY=0.75;entryDx=0;entryDy=0;" edge="1" parent="jx5KFHIMVyY-EHVHVlKd-28">
          <mxGeometry width="50" height="50" relative="1" as="geometry">
            <mxPoint y="9" as="sourcePoint" />
            <mxPoint x="80" y="9" as="targetPoint" />
          </mxGeometry>
        </mxCell>
        <mxCell id="jx5KFHIMVyY-EHVHVlKd-31" value="" style="group;rotation=30;" vertex="1" connectable="0" parent="WIyWlLk6GJQsqaUBKTNV-1">
          <mxGeometry x="396.8" y="428.75" width="83" height="9" as="geometry" />
        </mxCell>
        <mxCell id="jx5KFHIMVyY-EHVHVlKd-32" value="" style="endArrow=classic;html=1;rounded=0;" edge="1" parent="jx5KFHIMVyY-EHVHVlKd-31">
          <mxGeometry width="50" height="50" relative="1" as="geometry">
            <mxPoint x="79.8875" y="20" as="sourcePoint" />
            <mxPoint x="8.3" y="-19" as="targetPoint" />
          </mxGeometry>
        </mxCell>
        <mxCell id="jx5KFHIMVyY-EHVHVlKd-33" value="" style="endArrow=classic;html=1;rounded=0;entryX=0;entryY=0.75;entryDx=0;entryDy=0;" edge="1" parent="jx5KFHIMVyY-EHVHVlKd-31">
          <mxGeometry width="50" height="50" relative="1" as="geometry">
            <mxPoint x="3.1125000000000003" y="-13" as="sourcePoint" />
            <mxPoint x="74.7" y="26" as="targetPoint" />
          </mxGeometry>
        </mxCell>
      </root>
    </mxGraphModel>
  </diagram>
</mxfile>
